<mxfile host="app.diagrams.net" modified="2024-07-09T13:04:31.898Z" agent="Mozilla/5.0 (Windows NT 10.0; Win64; x64) AppleWebKit/537.36 (KHTML, like Gecko) Chrome/126.0.0.0 Safari/537.36" etag="Hac7DBYRkoijdYb09G0W" version="24.6.4" type="device">
  <diagram name="Страница — 1" id="VZYnL0Dr_9fj5Hgih0gW">
    <mxGraphModel dx="2876" dy="1114" grid="1" gridSize="10" guides="1" tooltips="1" connect="1" arrows="1" fold="1" page="1" pageScale="1" pageWidth="827" pageHeight="1169" math="0" shadow="0">
      <root>
        <mxCell id="0" />
        <mxCell id="1" parent="0" />
        <mxCell id="FvoVT0fhAGgEmgjV0psV-4" style="edgeStyle=orthogonalEdgeStyle;rounded=0;orthogonalLoop=1;jettySize=auto;html=1;exitX=0.5;exitY=1;exitDx=0;exitDy=0;entryX=0.5;entryY=0;entryDx=0;entryDy=0;" edge="1" parent="1" source="FvoVT0fhAGgEmgjV0psV-1" target="FvoVT0fhAGgEmgjV0psV-3">
          <mxGeometry relative="1" as="geometry" />
        </mxCell>
        <mxCell id="FvoVT0fhAGgEmgjV0psV-1" value="&lt;div&gt;Start&lt;/div&gt;int [] arr&amp;nbsp;" style="ellipse;whiteSpace=wrap;html=1;" vertex="1" parent="1">
          <mxGeometry x="35" y="10" width="120" height="80" as="geometry" />
        </mxCell>
        <mxCell id="FvoVT0fhAGgEmgjV0psV-3" value="int left =0&lt;br&gt;int right = arr.length-1&lt;div&gt;swapped = true&lt;/div&gt;" style="rounded=0;whiteSpace=wrap;html=1;" vertex="1" parent="1">
          <mxGeometry x="35" y="130" width="120" height="60" as="geometry" />
        </mxCell>
        <mxCell id="FvoVT0fhAGgEmgjV0psV-9" style="edgeStyle=orthogonalEdgeStyle;rounded=0;orthogonalLoop=1;jettySize=auto;html=1;entryX=0;entryY=0.5;entryDx=0;entryDy=0;" edge="1" parent="1" source="FvoVT0fhAGgEmgjV0psV-6" target="FvoVT0fhAGgEmgjV0psV-8">
          <mxGeometry relative="1" as="geometry" />
        </mxCell>
        <mxCell id="FvoVT0fhAGgEmgjV0psV-12" style="edgeStyle=orthogonalEdgeStyle;rounded=0;orthogonalLoop=1;jettySize=auto;html=1;entryX=0.5;entryY=0;entryDx=0;entryDy=0;" edge="1" parent="1" source="FvoVT0fhAGgEmgjV0psV-6" target="FvoVT0fhAGgEmgjV0psV-11">
          <mxGeometry relative="1" as="geometry" />
        </mxCell>
        <mxCell id="FvoVT0fhAGgEmgjV0psV-6" value="left &amp;lt; right &amp;amp;&amp;amp; swapped" style="html=1;whiteSpace=wrap;aspect=fixed;shape=isoRectangle;" vertex="1" parent="1">
          <mxGeometry x="20" y="240" width="150" height="90" as="geometry" />
        </mxCell>
        <mxCell id="FvoVT0fhAGgEmgjV0psV-7" style="edgeStyle=orthogonalEdgeStyle;rounded=0;orthogonalLoop=1;jettySize=auto;html=1;exitX=0.5;exitY=1;exitDx=0;exitDy=0;entryX=0.499;entryY=-0.015;entryDx=0;entryDy=0;entryPerimeter=0;" edge="1" parent="1">
          <mxGeometry relative="1" as="geometry">
            <mxPoint x="95.03" y="191.35" as="sourcePoint" />
            <mxPoint x="94.87999999999997" y="240" as="targetPoint" />
            <Array as="points">
              <mxPoint x="95" y="200" />
              <mxPoint x="95" y="200" />
            </Array>
          </mxGeometry>
        </mxCell>
        <mxCell id="FvoVT0fhAGgEmgjV0psV-42" style="edgeStyle=orthogonalEdgeStyle;rounded=0;orthogonalLoop=1;jettySize=auto;html=1;" edge="1" parent="1" source="FvoVT0fhAGgEmgjV0psV-8" target="FvoVT0fhAGgEmgjV0psV-14">
          <mxGeometry relative="1" as="geometry" />
        </mxCell>
        <mxCell id="FvoVT0fhAGgEmgjV0psV-8" value="swapped = false" style="rounded=0;whiteSpace=wrap;html=1;" vertex="1" parent="1">
          <mxGeometry x="235" y="255" width="120" height="60" as="geometry" />
        </mxCell>
        <mxCell id="FvoVT0fhAGgEmgjV0psV-10" value="TRUE" style="text;html=1;align=center;verticalAlign=middle;whiteSpace=wrap;rounded=0;" vertex="1" parent="1">
          <mxGeometry x="170" y="250" width="60" height="30" as="geometry" />
        </mxCell>
        <mxCell id="FvoVT0fhAGgEmgjV0psV-11" value="End" style="ellipse;whiteSpace=wrap;html=1;" vertex="1" parent="1">
          <mxGeometry x="35" y="420" width="120" height="80" as="geometry" />
        </mxCell>
        <mxCell id="FvoVT0fhAGgEmgjV0psV-13" value="FALSE" style="text;html=1;align=center;verticalAlign=middle;whiteSpace=wrap;rounded=0;" vertex="1" parent="1">
          <mxGeometry x="45" y="360" width="60" height="30" as="geometry" />
        </mxCell>
        <mxCell id="FvoVT0fhAGgEmgjV0psV-14" value="for (int i =left; i &amp;lt; right; i++)" style="rounded=0;whiteSpace=wrap;html=1;" vertex="1" parent="1">
          <mxGeometry x="217.5" y="410" width="155" height="55" as="geometry" />
        </mxCell>
        <mxCell id="FvoVT0fhAGgEmgjV0psV-22" style="edgeStyle=orthogonalEdgeStyle;rounded=0;orthogonalLoop=1;jettySize=auto;html=1;entryX=0;entryY=0.5;entryDx=0;entryDy=0;" edge="1" parent="1" source="FvoVT0fhAGgEmgjV0psV-16" target="FvoVT0fhAGgEmgjV0psV-26">
          <mxGeometry relative="1" as="geometry">
            <mxPoint x="450" y="555" as="targetPoint" />
          </mxGeometry>
        </mxCell>
        <mxCell id="FvoVT0fhAGgEmgjV0psV-75" style="edgeStyle=orthogonalEdgeStyle;rounded=0;orthogonalLoop=1;jettySize=auto;html=1;entryX=0.5;entryY=0;entryDx=0;entryDy=0;" edge="1" parent="1" source="FvoVT0fhAGgEmgjV0psV-16" target="FvoVT0fhAGgEmgjV0psV-43">
          <mxGeometry relative="1" as="geometry" />
        </mxCell>
        <mxCell id="FvoVT0fhAGgEmgjV0psV-16" value="arr[i] &amp;gt; arr[i + 1]" style="html=1;whiteSpace=wrap;aspect=fixed;shape=isoRectangle;" vertex="1" parent="1">
          <mxGeometry x="220" y="510" width="150" height="90" as="geometry" />
        </mxCell>
        <mxCell id="FvoVT0fhAGgEmgjV0psV-18" style="edgeStyle=orthogonalEdgeStyle;rounded=0;orthogonalLoop=1;jettySize=auto;html=1;entryX=0.499;entryY=0.014;entryDx=0;entryDy=0;entryPerimeter=0;" edge="1" parent="1" source="FvoVT0fhAGgEmgjV0psV-14" target="FvoVT0fhAGgEmgjV0psV-16">
          <mxGeometry relative="1" as="geometry" />
        </mxCell>
        <mxCell id="FvoVT0fhAGgEmgjV0psV-24" value="TRUE" style="text;html=1;align=center;verticalAlign=middle;whiteSpace=wrap;rounded=0;" vertex="1" parent="1">
          <mxGeometry x="390" y="525" width="60" height="30" as="geometry" />
        </mxCell>
        <mxCell id="FvoVT0fhAGgEmgjV0psV-25" value="FALSE" style="text;html=1;align=center;verticalAlign=middle;whiteSpace=wrap;rounded=0;" vertex="1" parent="1">
          <mxGeometry x="230" y="610" width="60" height="30" as="geometry" />
        </mxCell>
        <mxCell id="FvoVT0fhAGgEmgjV0psV-28" style="edgeStyle=orthogonalEdgeStyle;rounded=0;orthogonalLoop=1;jettySize=auto;html=1;entryX=0.5;entryY=0;entryDx=0;entryDy=0;" edge="1" parent="1" source="FvoVT0fhAGgEmgjV0psV-26" target="FvoVT0fhAGgEmgjV0psV-27">
          <mxGeometry relative="1" as="geometry" />
        </mxCell>
        <mxCell id="FvoVT0fhAGgEmgjV0psV-26" value="swap(arr, i, i + 1)" style="rounded=0;whiteSpace=wrap;html=1;" vertex="1" parent="1">
          <mxGeometry x="520" y="525" width="120" height="60" as="geometry" />
        </mxCell>
        <mxCell id="FvoVT0fhAGgEmgjV0psV-40" style="edgeStyle=orthogonalEdgeStyle;rounded=0;orthogonalLoop=1;jettySize=auto;html=1;entryX=1.01;entryY=0.431;entryDx=0;entryDy=0;entryPerimeter=0;exitX=0.985;exitY=0.452;exitDx=0;exitDy=0;exitPerimeter=0;" edge="1" parent="1" source="FvoVT0fhAGgEmgjV0psV-27">
          <mxGeometry relative="1" as="geometry">
            <mxPoint x="372.49999999999994" y="433.70500000000004" as="targetPoint" />
            <mxPoint x="673.1599999999999" y="700.9899999999999" as="sourcePoint" />
            <Array as="points">
              <mxPoint x="638" y="694" />
              <mxPoint x="723" y="694" />
              <mxPoint x="723" y="434" />
            </Array>
          </mxGeometry>
        </mxCell>
        <mxCell id="FvoVT0fhAGgEmgjV0psV-27" value="swapped = true" style="rounded=0;whiteSpace=wrap;html=1;" vertex="1" parent="1">
          <mxGeometry x="520" y="665" width="120" height="60" as="geometry" />
        </mxCell>
        <mxCell id="FvoVT0fhAGgEmgjV0psV-43" value="right--" style="rounded=0;whiteSpace=wrap;html=1;" vertex="1" parent="1">
          <mxGeometry x="235" y="660" width="120" height="60" as="geometry" />
        </mxCell>
        <mxCell id="FvoVT0fhAGgEmgjV0psV-66" style="edgeStyle=orthogonalEdgeStyle;rounded=0;orthogonalLoop=1;jettySize=auto;html=1;entryX=1;entryY=0.5;entryDx=0;entryDy=0;" edge="1" parent="1" source="FvoVT0fhAGgEmgjV0psV-45" target="FvoVT0fhAGgEmgjV0psV-65">
          <mxGeometry relative="1" as="geometry" />
        </mxCell>
        <mxCell id="FvoVT0fhAGgEmgjV0psV-45" value="for (int i = right; i &amp;gt; left; i--)" style="rounded=0;whiteSpace=wrap;html=1;" vertex="1" parent="1">
          <mxGeometry x="212.5" y="780" width="160" height="60" as="geometry" />
        </mxCell>
        <mxCell id="FvoVT0fhAGgEmgjV0psV-62" style="edgeStyle=orthogonalEdgeStyle;rounded=0;orthogonalLoop=1;jettySize=auto;html=1;entryX=1;entryY=0.5;entryDx=0;entryDy=0;" edge="1" parent="1" source="FvoVT0fhAGgEmgjV0psV-54" target="FvoVT0fhAGgEmgjV0psV-45">
          <mxGeometry relative="1" as="geometry">
            <mxPoint x="430" y="810" as="targetPoint" />
            <Array as="points">
              <mxPoint x="410" y="925" />
              <mxPoint x="410" y="810" />
            </Array>
          </mxGeometry>
        </mxCell>
        <mxCell id="FvoVT0fhAGgEmgjV0psV-54" value="arr[i] &amp;lt; arr[i - 1]" style="html=1;whiteSpace=wrap;aspect=fixed;shape=isoRectangle;" vertex="1" parent="1">
          <mxGeometry x="217.5" y="880" width="150" height="90" as="geometry" />
        </mxCell>
        <mxCell id="FvoVT0fhAGgEmgjV0psV-55" style="edgeStyle=orthogonalEdgeStyle;rounded=0;orthogonalLoop=1;jettySize=auto;html=1;entryX=0.504;entryY=0.012;entryDx=0;entryDy=0;entryPerimeter=0;" edge="1" parent="1" source="FvoVT0fhAGgEmgjV0psV-45" target="FvoVT0fhAGgEmgjV0psV-54">
          <mxGeometry relative="1" as="geometry" />
        </mxCell>
        <mxCell id="FvoVT0fhAGgEmgjV0psV-57" value="" style="endArrow=classic;html=1;rounded=0;exitX=0.503;exitY=0.991;exitDx=0;exitDy=0;exitPerimeter=0;entryX=0.5;entryY=1;entryDx=0;entryDy=0;" edge="1" parent="1" source="FvoVT0fhAGgEmgjV0psV-54" target="FvoVT0fhAGgEmgjV0psV-59">
          <mxGeometry width="50" height="50" relative="1" as="geometry">
            <mxPoint x="367.5" y="924.83" as="sourcePoint" />
            <mxPoint x="510" y="960" as="targetPoint" />
            <Array as="points">
              <mxPoint x="293" y="1040" />
              <mxPoint x="400" y="1040" />
              <mxPoint x="580" y="1040" />
            </Array>
          </mxGeometry>
        </mxCell>
        <mxCell id="FvoVT0fhAGgEmgjV0psV-58" value="TRUE" style="text;html=1;align=center;verticalAlign=middle;whiteSpace=wrap;rounded=0;" vertex="1" parent="1">
          <mxGeometry x="240" y="980" width="60" height="30" as="geometry" />
        </mxCell>
        <mxCell id="FvoVT0fhAGgEmgjV0psV-70" style="edgeStyle=orthogonalEdgeStyle;rounded=0;orthogonalLoop=1;jettySize=auto;html=1;entryX=0.5;entryY=1;entryDx=0;entryDy=0;" edge="1" parent="1" source="FvoVT0fhAGgEmgjV0psV-59" target="FvoVT0fhAGgEmgjV0psV-27">
          <mxGeometry relative="1" as="geometry" />
        </mxCell>
        <mxCell id="FvoVT0fhAGgEmgjV0psV-59" value="swap(arr, i, i + 1)" style="rounded=0;whiteSpace=wrap;html=1;" vertex="1" parent="1">
          <mxGeometry x="520" y="880" width="120" height="60" as="geometry" />
        </mxCell>
        <mxCell id="FvoVT0fhAGgEmgjV0psV-64" value="FALSE" style="text;html=1;align=center;verticalAlign=middle;whiteSpace=wrap;rounded=0;" vertex="1" parent="1">
          <mxGeometry x="370" y="930" width="60" height="30" as="geometry" />
        </mxCell>
        <mxCell id="FvoVT0fhAGgEmgjV0psV-69" style="edgeStyle=orthogonalEdgeStyle;rounded=0;orthogonalLoop=1;jettySize=auto;html=1;" edge="1" parent="1" source="FvoVT0fhAGgEmgjV0psV-65" target="FvoVT0fhAGgEmgjV0psV-6">
          <mxGeometry relative="1" as="geometry">
            <Array as="points">
              <mxPoint x="-60" y="810" />
              <mxPoint x="-60" y="285" />
            </Array>
          </mxGeometry>
        </mxCell>
        <mxCell id="FvoVT0fhAGgEmgjV0psV-65" value="left++" style="rounded=0;whiteSpace=wrap;html=1;" vertex="1" parent="1">
          <mxGeometry x="35" y="780" width="120" height="60" as="geometry" />
        </mxCell>
        <mxCell id="FvoVT0fhAGgEmgjV0psV-76" style="edgeStyle=orthogonalEdgeStyle;rounded=0;orthogonalLoop=1;jettySize=auto;html=1;entryX=0.521;entryY=-0.052;entryDx=0;entryDy=0;entryPerimeter=0;" edge="1" parent="1" source="FvoVT0fhAGgEmgjV0psV-43" target="FvoVT0fhAGgEmgjV0psV-45">
          <mxGeometry relative="1" as="geometry" />
        </mxCell>
      </root>
    </mxGraphModel>
  </diagram>
</mxfile>
